<mxfile host="app.diagrams.net" modified="2023-08-25T16:50:21.235Z" agent="Mozilla/5.0 (Windows NT 10.0; Win64; x64) AppleWebKit/537.36 (KHTML, like Gecko) Chrome/116.0.0.0 Safari/537.36" etag="t28RLFQwoFIJUwMkAKxN" version="21.6.9" type="device">
  <diagram name="Página-1" id="53x4caF6S8HuWkCOFqLp">
    <mxGraphModel dx="724" dy="403" grid="1" gridSize="10" guides="1" tooltips="1" connect="1" arrows="1" fold="1" page="1" pageScale="1" pageWidth="827" pageHeight="1169" math="0" shadow="0">
      <root>
        <mxCell id="0" />
        <mxCell id="1" parent="0" />
        <mxCell id="xqvHvCYJhF2coQ8VD2dx-1" value="Harpia ou Gavião Rei" style="swimlane;fontStyle=1;align=center;verticalAlign=top;childLayout=stackLayout;horizontal=1;startSize=26;horizontalStack=0;resizeParent=1;resizeParentMax=0;resizeLast=0;collapsible=1;marginBottom=0;whiteSpace=wrap;html=1;" vertex="1" parent="1">
          <mxGeometry x="224" y="90" width="380" height="400" as="geometry" />
        </mxCell>
        <mxCell id="xqvHvCYJhF2coQ8VD2dx-2" value="+ Nacionalidade: string&lt;br&gt;+ Fisionomia: string&lt;br&gt;+ Espécie: string&lt;br&gt;+ Habitat: string&lt;br&gt;+ Alimentação: string&lt;br&gt;+ Plumagem: string&lt;br&gt;+ Comportamento: string&lt;br&gt;+ Idade: int&lt;br&gt;+ Importância ecológica: string&lt;br&gt;+ Extinção: bool&lt;br&gt;+ Tamanho: decimal&lt;br&gt;+ Peso: decimal&lt;br&gt;+ Ancestrais: string&lt;br&gt;+ Visão: string&lt;br&gt;+ Velocidade: decimal" style="text;strokeColor=none;fillColor=none;align=left;verticalAlign=top;spacingLeft=4;spacingRight=4;overflow=hidden;rotatable=0;points=[[0,0.5],[1,0.5]];portConstraint=eastwest;whiteSpace=wrap;html=1;" vertex="1" parent="xqvHvCYJhF2coQ8VD2dx-1">
          <mxGeometry y="26" width="380" height="234" as="geometry" />
        </mxCell>
        <mxCell id="xqvHvCYJhF2coQ8VD2dx-3" value="" style="line;strokeWidth=1;fillColor=none;align=left;verticalAlign=middle;spacingTop=-1;spacingLeft=3;spacingRight=3;rotatable=0;labelPosition=right;points=[];portConstraint=eastwest;strokeColor=inherit;" vertex="1" parent="xqvHvCYJhF2coQ8VD2dx-1">
          <mxGeometry y="260" width="380" height="8" as="geometry" />
        </mxCell>
        <mxCell id="xqvHvCYJhF2coQ8VD2dx-4" value="+ voar(): void&lt;br&gt;+ cacar(): void&lt;br&gt;+ agarrar(): void&lt;br&gt;+ dormir(): void&lt;br&gt;+ camuflar(): void&lt;br&gt;+ cantar(): void&lt;br&gt;+ comer(): void&lt;br&gt;+ beber(): void&amp;nbsp; &amp;nbsp; &amp;nbsp; &amp;nbsp; &amp;nbsp; &amp;nbsp; &amp;nbsp; &amp;nbsp; &amp;nbsp; &amp;nbsp; &amp;nbsp; &amp;nbsp; &amp;nbsp; &amp;nbsp; &amp;nbsp; &amp;nbsp; &amp;nbsp; &amp;nbsp; &amp;nbsp; &amp;nbsp; &amp;nbsp; &amp;nbsp; &amp;nbsp; &amp;nbsp; &amp;nbsp; &amp;nbsp; &amp;nbsp; &amp;nbsp; &amp;nbsp; &amp;nbsp; &amp;nbsp; &amp;nbsp; &amp;nbsp; &amp;nbsp; &amp;nbsp; &amp;nbsp;Guilherm" style="text;strokeColor=none;fillColor=none;align=left;verticalAlign=top;spacingLeft=4;spacingRight=4;overflow=hidden;rotatable=0;points=[[0,0.5],[1,0.5]];portConstraint=eastwest;whiteSpace=wrap;html=1;" vertex="1" parent="xqvHvCYJhF2coQ8VD2dx-1">
          <mxGeometry y="268" width="380" height="132" as="geometry" />
        </mxCell>
      </root>
    </mxGraphModel>
  </diagram>
</mxfile>
